<?xml version="1.0" encoding="UTF-8"?>
<svg id="Layer_1" data-name="Layer 1" xmlns="http://www.w3.org/2000/svg" viewBox="0 0 499.24 189.44">
  <defs>
    <style>
      .cls-1 {
        fill: #fff;
        stroke-width: 0px;
      }
    </style>
  </defs>
  <path class="cls-1" d="M343.48,14.36c-6.98,21.28-13.83,42.16-20.67,63.04l.45.23c.41-.73.83-1.45,1.23-2.19,3.94-7.35,7.94-14.68,13.45-21.01,1.49-1.71,3.2-3.32,5.08-4.57,4.47-2.96,9.34-1.02,10.33,4.24.37,1.99-.16,4.24-.71,6.25-.19.68-1.73,1.44-2.57,1.36-.69-.07-1.6-1.24-1.82-2.08-.56-2.15.3-3.4,2.76-4.68-.5-3.51-3.4-5.24-6.25-3.23-2.73,1.93-5.22,4.38-7.29,7.02-5.73,7.29-10.26,15.34-14.15,23.99,2.48,1.45,2.74,3.96,3.03,6.56.33,3.03.83,6.04,1.44,9.03.26,1.26.84,2.51,1.5,3.64,2.08,3.61,5.53,4.43,9.03,2.16,3.7-2.41,6.39-5.84,8.51-9.58,3.63-6.39,7.34-12.79,10.23-19.53,3.11-7.25,5.4-14.85,7.9-22.35,3.99-11.99,7.89-24.02,11.71-36.06.57-1.8,1.39-2.4,3.22-2.25,2.12.17,4.26.04,6.66.04-6.98,21.29-13.86,42.3-20.75,63.31.15.07.3.14.46.21.41-.75.82-1.49,1.22-2.24,4-7.48,8.01-14.96,13.66-21.37,1.59-1.8,3.45-3.48,5.48-4.73,3.99-2.44,8.17-.73,9.64,3.73.79,2.4.77,4.87-.51,7.06-.44.75-1.77,1.46-2.6,1.37-.69-.07-1.6-1.25-1.82-2.09-.55-2.11.34-3.39,2.77-4.68-.46-3.48-3.37-5.18-6.26-3.22-2.48,1.68-4.74,3.86-6.64,6.2-6.06,7.49-10.73,15.86-14.78,24.82,2.88,1.67,2.71,4.63,3.13,7.42.51,3.35.87,6.8,1.98,9.96,2.09,5.91,7.08,7.1,11.5,2.65,3.04-3.06,5.72-6.61,7.92-10.33,3.53-5.97,6.62-12.21,9.72-18.41,1.8-3.59,3.13-7.42,4.93-11.01,2.25-4.49,4.95-8.71,9.04-11.8.88-.66,1.85-1.25,2.86-1.68,4.58-1.96,8.43-.45,10.51,4.06.34.74.62,1.52,1.12,2.74.81-1.91,1.59-3.42,2.1-5.03.48-1.54,1.35-2,2.91-1.91,2.19.13,4.4.03,6.93.03-.39,1.1-.66,1.86-.93,2.61-4.57,12.82-9.23,25.6-13.64,38.47-1.23,3.58-1.73,7.42-2.43,11.16-.14.75.38,1.62.59,2.44.78-.34,1.85-.46,2.31-1.05,2.34-3,4.84-5.96,6.71-9.25,4.11-7.24,7.87-14.67,11.84-22.16,1.23.27,1.58.94.88,2.29-2.98,5.73-5.74,11.58-8.92,17.19-2.76,4.87-5.94,9.5-9.04,14.17-.67,1.01-1.71,1.83-2.7,2.57-3.14,2.34-6.95,1.25-7.9-2.56-.64-2.57-.6-5.35-.56-8.03.03-2.2.51-4.39.42-6.76-.48.97-.99,1.93-1.44,2.91-2.25,4.88-4.8,9.58-8.7,13.35-1.05,1.01-2.5,1.83-3.91,2.18-2.35.58-4.77-.88-5.54-3.66-.81-2.9-1.23-5.98-1.31-9-.09-3.44.39-6.89.34-10.51-1.39,2.5-2.86,4.97-4.17,7.52-2.45,4.81-5.48,9.19-9.59,12.72-5.96,5.12-12.82,3.84-16.04-3.33-1.59-3.55-2.18-7.55-3.19-11.35-.17-.65-.18-1.34-.74-2.17-.56,1.18-1.2,2.32-1.68,3.54-1.87,4.78-3.68,9.58-5.56,14.36-.2.5-.68,1.25-1.06,1.27-2.67.11-5.35.06-8.38.06,2.14-6.74,4.17-13.12,6.2-19.5-.15-.07-.3-.14-.45-.21-.86,1.52-1.79,3-2.56,4.56-2.38,4.77-5.4,9.07-9.4,12.61-6.12,5.4-13.15,4.05-16.43-3.44-1.45-3.32-2.02-7.03-2.95-10.58-.22-.82-.25-1.69-.37-2.54-.18-.03-.37-.06-.55-.08-.5,1.11-1.05,2.19-1.49,3.33-1.86,4.79-3.73,9.58-5.5,14.4-.4,1.08-.86,1.56-2.06,1.51-2.41-.09-4.82-.03-7.54-.03,2.07-6.47,4.04-12.63,6.01-18.79-.17-.07-.35-.14-.52-.21-.81,1.58-1.48,3.25-2.45,4.72-2.61,3.93-5.19,7.89-8.09,11.6-1.76,2.26-4.11,4.26-7.36,2.98-3.09-1.22-3.68-4.17-3.59-6.95.12-4,.78-7.99,1.25-11.98.1-.88.36-1.75.21-2.79-1.18,2.05-2.24,4.18-3.56,6.14-2.78,4.13-5.64,8.2-8.57,12.22-.63.87-1.62,1.53-2.55,2.13-3.84,2.5-8.47.76-9.49-3.68-1.1-4.8-.3-9.58,1.15-14.17,1.99-6.28,4.44-12.42,6.48-18.68,1.44-4.42,2.64-8.92,3.71-13.44.37-1.57.25-3.33-.02-4.95-.31-1.84-1.71-2.46-3.26-1.43-1.53,1.02-3.19,2.21-4.1,3.74-2.93,4.94-6.1,9.85-8.16,15.16-4.62,11.9-8.66,24.03-12.83,36.1-.59,1.71-1.3,2.5-3.19,2.33-2.06-.18-4.16-.04-6.63-.04,2.09-6.51,4.11-12.79,6.13-19.07-.13-.07-.25-.14-.38-.21-.74,1.24-1.44,2.49-2.22,3.7-2.56,4.03-5.07,8.09-7.76,12.04-.84,1.23-2.08,2.25-3.31,3.12-3.04,2.16-6.83,1.1-7.58-2.54-.69-3.32-.41-6.86-.41-10.3,0-1.48.37-2.96.17-4.58-.47.97-.85,1.99-1.41,2.9-2.68,4.28-5.36,8.56-8.16,12.76-.59.88-1.6,1.55-2.55,2.11-2.43,1.43-5.47.89-6.66-1.65-1.1-2.32-1.87-4.98-2.01-7.53-.68-12.24,2.63-23.64,7.88-34.57,2.33-4.85,5.09-9.42,9.29-12.93.85-.71,1.79-1.34,2.77-1.83,4.97-2.5,9.23-.9,11.37,4.22.26.62.53,1.24.97,2.24.89-2.14,1.58-3.93,2.39-5.67.22-.48.78-1.13,1.21-1.14,2.68-.1,5.36-.05,8.36-.05-.4,1.1-.69,1.85-.96,2.62-4.64,13.01-9.36,25.99-13.85,39.05-1.16,3.39-1.64,7.02-2.28,10.56-.13.75.4,1.62.63,2.43.78-.34,1.82-.46,2.29-1.04,2.21-2.76,4.57-5.47,6.3-8.52,3.66-6.45,7.39-12.92,10.31-19.72,3-7,5.05-14.41,7.55-21.62,1.58-4.58.4-3.66,5.21-3.76,1.57-.03,3.14,0,5.07,0-.91,2.84-1.69,5.31-2.48,7.78.13.07.26.14.39.21.34-.52.64-1.08,1.04-1.55,1.7-2,3.23-4.22,5.21-5.91,3.58-3.04,8.25-2.09,10.76,1.89,2.34,3.7,2.71,7.75,1.59,11.84-2.23,8.09-4.76,16.1-7.01,24.19-1.13,4.07-2.04,8.21-2.8,12.37-.2,1.13.51,2.42.81,3.64,1.02-.62,2.41-1,3.01-1.9,3.52-5.3,6.94-10.67,10.23-16.12,4.99-8.25,8.07-17.34,11.34-26.35,1.07-2.94,2.22-5.84,3.45-8.72.25-.59.95-1.37,1.48-1.4,2.62-.14,5.26-.07,8.22-.07-.45,1.23-.81,2.18-1.16,3.14-4.15,11.41-8.42,22.78-12.4,34.26-1.45,4.18-2.26,8.59-3.3,12.9-.24,1-.28,2.07-.29,3.1-.01,1.54.86,1.91,1.99,1.04,1.09-.84,2.13-1.83,2.9-2.96,6.75-9.88,12.99-20.1,16.89-31.45,6.05-17.6,11.67-35.34,17.41-53.04.49-1.53,1.16-2.09,2.76-1.98,2.21.14,4.43.04,7.02.04ZM210.21,98.82c.03.61-.07,1.35.15,1.98.27.8.81,1.5,1.23,2.24.67-.43,1.42-.77,1.99-1.31.54-.52.93-1.21,1.31-1.87,1.94-3.43,3.92-6.85,5.76-10.33,4.38-8.3,8.05-16.91,10.78-25.89.5-1.64.8-3.39.81-5.1,0-2.02-.3-4.4-2.43-5.13-2.17-.74-3.69,1.12-4.96,2.69-.99,1.24-1.97,2.55-2.64,3.97-2.1,4.44-4.3,8.87-6.02,13.46-3.04,8.13-5.43,16.45-5.97,25.28ZM405.26,98.53c.06.93,0,1.93.22,2.86.14.6.61,1.45,1.08,1.57.48.12,1.28-.4,1.71-.85.67-.69,1.22-1.52,1.69-2.36,1.95-3.43,3.93-6.85,5.74-10.35,4.56-8.83,8.53-17.9,11.18-27.51.69-2.49.57-4.94-.7-7.26-.78-1.42-2-1.9-3.28-1.03-1.4.95-2.97,2.05-3.73,3.48-2.79,5.25-5.62,10.52-7.8,16.03-3.21,8.13-5.54,16.57-6.11,25.42Z"/>
  <path class="cls-1" d="M69.91,9.27c3.49,2.23,6.18,5.06,8.26,8.48,3.52,5.76,4.97,12.17,5.82,18.76.48,3.72.81,7.45,1.24,11.17.4,3.48.7,3.63,3.76,2.08.66-.33,1.31-.67,1.97-1.01.15.13.31.27.46.4-.95,1.28-1.76,2.7-2.88,3.81-.98.98-1.22,1.85-.82,3.13,1.21,3.87,3.86,6.63,6.7,9.36,1.85,1.78,3.39,3.94,4.82,6.09.87,1.31.48,2.64-1.09,3.43-.61.31-1.14.79-1.7,1.2-2.57,1.83-3.25,5.71-1.46,8.33,2.86,4.2,2.47,5.81-2.2,8.25.35.48.65.96,1.01,1.39.66.81,1.96,1.63,1.91,2.37-.12,1.64-.46,3.71-1.54,4.74-2.06,1.97-1.98,3.8-1.15,6.16,1.62,4.62-.28,8.09-5.16,8.91-3.47.58-7.05.52-10.59.73-8.88.53-17.4,2.31-24.66,7.81-8.7,6.6-13.48,15.34-13.73,26.36-.08,3.73-.01,7.45-.01,11.66-5.38-4.13-8.99-8.84-10.1-15.16-2.67-15.17.35-29.39,7.41-42.88,4.75-9.09,10.58-17.41,17.62-24.91,3.7-3.95,7.31-8.02,10.57-12.33,6.35-8.4,8.85-18.15,9.53-28.55.62-9.52-1.06-18.63-3.87-27.62-.14-.46-.24-.94-.32-1.41-.03-.17.08-.37.17-.76Z"/>
  <path class="cls-1" d="M114.97,172.41c-.58.46-1.12.98-1.74,1.37-15.56,9.83-32.15,16.3-50.94,15.62-18.79-.68-33.72-8.76-45.1-23.56-8.17-10.63-12.69-22.85-15.25-35.87-3-15.29-2.65-30.49,1.9-45.45,2.87-9.44,7.43-17.97,15.23-24.37,1.76-1.44,3.77-2.59,5.73-3.76,1.67-1,2.98-2.22,3.52-4.17.35-1.26.98-2.5,2.52-2.27,1.09.16,2.77.57,3.02,1.28.47,1.31.27,2.97-.07,4.38-.1.43-1.6.87-2.38.75-3.59-.54-5.71,1.45-7.66,4-6.99,9.18-10.38,19.71-11.45,31.04-1.67,17.76.95,34.86,8.11,51.25,5.29,12.12,12.65,22.49,24.46,29.08,7.76,4.33,16.25,6.16,25.05,6.92,9.63.82,19.15.09,28.57-1.77,3.97-.79,7.76-2.53,11.64-3.79,1.5-.49,3.04-.85,4.56-1.27.09.2.18.4.28.6Z"/>
  <path class="cls-1" d="M243.23,19.45c-.14-4.26-.9-8.2-2.8-11.82-1.84-3.51-5.37-4.57-9.52-2.99-4.47,1.71-7.59,5.1-10.4,8.74-7.27,9.41-12.79,19.84-17.16,30.84-6.23,15.68-12.25,31.43-18.26,47.2-3.83,10.05-7.52,20.17-11.19,30.28-.51,1.42-1.2,1.94-2.7,1.86-2.48-.12-4.97-.03-7.76-.03.69-4.35,1.32-8.44,1.99-12.52,2.5-15.34,5.25-30.65,7.45-46.04,1.75-12.24,2.66-24.59,1.11-36.97-.61-4.86-1.81-9.56-4.37-13.8-4.29-7.11-12.54-9.42-19.63-5.06-2.95,1.81-5.79,4.27-7.79,7.06-8.66,12.1-11.28,25.6-8.25,40.16.29,1.41.84,2.8,1.44,4.12,4.06,8.96,14.74,11.25,22.21,4.76,3.82-3.31,6.33-7.5,7.82-11.58-.87-1.91-1.86-3.27-2.08-4.76-.27-1.89,1.36-3.43,2.93-3.32,1.49.1,2.85,1.66,2.58,3.46-.29,1.9-.88,3.78-1.57,5.58-2.04,5.25-4.87,10.01-9.49,13.42-8.68,6.42-19.78,3.44-24.1-6.41-2.55-5.81-2.94-11.96-2.7-18.19.45-11.27,3.69-21.61,10.73-30.54,3.69-4.68,8.07-8.53,14.41-9,6.08-.45,11.03,1.65,14.46,6.87,4.32,6.58,5.52,14.05,5.86,21.66.79,17.38-1.41,34.53-4.43,51.6-1.61,9.1-3.14,18.2-4.7,27.31-.05.26,0,.54,0,1.46.46-1.03.71-1.52.89-2.03,2.96-8.08,5.71-16.25,8.91-24.23,5.63-14.05,11.44-28.03,17.35-41.96,4.73-11.16,10.66-21.68,18.14-31.26,3.14-4.02,6.66-7.66,11.03-10.37C226.5,1.19,229.58.02,233.04,0c3.32-.02,5.98,1.28,7.82,3.99.96,1.42,1.77,3,2.37,4.61,1.71,4.63,2.13,9.47,2.02,14.36-.05,2.38-1.01,3.64-2.6,3.64-1.76,0-2.59-1.12-2.89-2.72-.37-2.01.58-3.61,2.48-4.18.26-.08.52-.13,1-.25Z"/>
  <path class="cls-1" d="M237.14,140.2c2.81,8.32,5.62,16.63,8.42,24.95.2.02.4.04.6.05,2.8-8.33,5.59-16.66,8.55-25.47,2.63,12.36,5.16,24.21,7.69,36.07.17.04.34.08.51.13,4.34-11.92,8.68-23.83,13.14-36.1,4.53,12.32,8.94,24.32,13.42,36.52h-4.08c-.91-2.46-1.87-4.91-2.71-7.4-.37-1.09-.94-1.53-2.12-1.5-2.99.07-5.98.07-8.96,0-1.18-.03-1.75.45-2.11,1.53-.7,2.11-1.43,4.21-2.3,6.25-.23.54-.99,1.18-1.54,1.21-2.21.14-4.43.06-6.89.06-1.55-7.2-3.08-14.35-4.61-21.49-.17-.01-.34-.02-.51-.03-2.51,7.39-5.01,14.78-7.74,22.84-2.74-7.98-5.28-15.37-7.81-22.76-.18-.02-.35-.04-.53-.06-1.53,7.09-3.05,14.18-4.6,21.38h-3.76c2.54-12.11,5.06-24.1,7.58-36.09.12-.03.25-.05.37-.08ZM276.34,151.75c-.19,0-.39.01-.58.02-1.38,3.8-2.75,7.6-4.2,11.61h9.03c-1.47-4.04-2.86-7.83-4.24-11.63Z"/>
  <path class="cls-1" d="M465.44,89.23c-.98.72-1.95,1.13-2.46,1.86-2.5,3.54-3.83,7.4-2.41,11.73.87,2.64,3.48,4.05,6.33,3.57,4.79-.8,7.76-3.89,8.91-8.31.84-3.23,1.39-6.84.82-10.06-1.25-7.06-3.29-13.98-5-20.95-.19-.02-.37-.04-.56-.06-1.13,2.32-2.25,4.65-3.42,7.06-1.24-.45-1.78-.98-1.14-2.31,2.58-5.39,5.02-10.84,7.65-16.2,2.46-5.03,6.65-7.71,12.2-8.19.77-.07,2.05.29,2.32.84.69,1.36-.71,1.45-1.57,1.76-6.06,2.17-8.75,6.5-7.78,12.97.46,3.08,1.19,6.14,2.08,9.13,2.41,8,4.04,16.04,2.22,24.51,6.04-7.62,10.14-16.32,14.29-24.98.22-.06.45-.11.67-.17.22.71.84,1.61.6,2.1-4.41,9.2-8.65,18.52-15.28,26.41-4.13,4.91-9.09,8.55-15.81,9.09-5.7.46-9.36-2.27-9.89-7.93-.53-5.65,1.03-10.64,5.95-14.02,1.09-.75,2.51-1.15,3.84-1.41,1.86-.37,2.86.75,3.22,2.47.33,1.61-.68,3.5-2.08,3.91-2.08.61-2.8-.94-3.7-2.83Z"/>
  <path class="cls-1" d="M365.2,157.57c-.03,6.57-1.52,11.44-5.32,15.43-6.2,6.49-15.27,6.27-21.21-.49-6.78-7.72-6.21-20.04.4-27.87,5.07-6,14.41-6.2,18.98-1.9,4.54,4.27,7.42,9.49,7.15,14.84ZM337.85,158.97c.05,3.82,1.18,7.23,3.82,10.07,4,4.32,10.28,4.78,14.6,1.05,6.23-5.37,6.45-16.41.45-22.01-4.71-4.4-11.59-3.84-15.59,1.22-2.25,2.85-3.24,6.08-3.28,9.66Z"/>
  <path class="cls-1" d="M29.26,47.07c-3.19-5.19-6.78-10.26-5.42-16.95.27-1.32.85-2.67,1.63-3.77,2.81-4.02,5.77-7.94,8.67-11.89,8.54,6.18,9.1,24.03.95,30.6.27-3.01.53-6.03.8-9.05-.26-.06-.52-.12-.77-.18-1.6,3.79-3.19,7.59-4.79,11.38-.35-.05-.71-.09-1.06-.14Z"/>
  <path class="cls-1" d="M66.1,41.8c-1.54,3.91-2.86,7.78-4.57,11.46-1.78,3.83-5.21,5.71-9.25,6.29-4.58.66-9.08.08-14-1.85,3.16-3.26,6.11-6.3,9.05-9.33-.13-.2-.25-.41-.38-.61-2.84,1.29-5.68,2.59-8.44,3.84,1.86-7.24,15.65-14.03,27.59-9.81Z"/>
  <path class="cls-1" d="M418.2,162.2v14.15h-3.84v-35.74c3.42.3,6.9.12,10.07,1.02,4.04,1.15,5.93,4.63,6.32,8.69.41,4.35-1.08,7.93-5.1,10.13-.72.39-1.48.71-2.4,1.15,2.68,4.91,5.3,9.7,7.92,14.5-3.3,1-4.17.66-5.65-2.07-1.85-3.42-3.7-6.84-5.58-10.25-.34-.62-.8-1.17-1.2-1.75-.18.05-.36.11-.54.16ZM418.09,157.6c4.84.54,8.02-1.24,8.51-4.76.7-4.98-2.25-7.62-7.57-7.18-.34.03-.89.7-.9,1.07-.07,3.59-.04,7.18-.04,10.87Z"/>
  <path class="cls-1" d="M313.16,176.23c-3.34.94-5.4-.08-7.16-2.84-2.57-4.03-5.6-7.77-8.44-11.63-.39-.53-.8-1.03-1.7-1.4v15.99h-3.72v-35.37h3.65v13.7c.41-.07.67-.03.76-.14,3.05-3.61,6.23-7.11,9.06-10.88,2.25-2.99,3.22-3.55,7.47-2.42-2.61,3.21-5.11,6.33-7.65,9.41-1.59,1.93-3.16,3.88-4.85,5.71-.91.99-.76,1.67-.01,2.67,3.76,4.99,7.44,10.05,11.14,15.08.48.65.93,1.33,1.45,2.08Z"/>
  <path class="cls-1" d="M31.97,58.57c.83,3.78,1.63,7.38,2.45,11.12,1.87-2.69,1.06-5.82,1.45-8.88,5.42,6.62,1.37,24.4-6.03,28.29-2.07-3.66-4.24-7.26-6.19-10.97-3.79-7.23.09-16.95,8.31-19.55Z"/>
  <path class="cls-1" d="M331.44,171.66v4.69h-15.52v-35.38h15.51v5.08c-3.16,0-6.27.13-9.36-.04-2.07-.11-2.66.63-2.51,2.59.16,1.98.03,3.98.03,6.16h11.8v4.9c-3.21,0-6.39.08-9.56-.03-1.67-.06-2.38.36-2.28,2.17.14,2.63.12,5.28,0,7.91-.07,1.6.53,2.03,2.05,1.98,3.24-.1,6.49-.03,9.83-.03Z"/>
  <path class="cls-1" d="M398.27,154.8h11.61c.18.3.29.42.31.54q.37,4.32-3.9,4.32c-2.56,0-5.12,0-7.98,0,0,3.84-.04,7.49.07,11.14,0,.3.99.8,1.54.82,2.64.09,5.29.18,7.92,0,2.09-.14,2.75.65,2.45,2.59-.1.67-.07,1.36-.11,2.16h-15.6c-.05-.72-.14-1.39-.14-2.05,0-10.42.03-20.83-.04-31.25-.01-1.69.43-2.31,2.2-2.26,4.43.11,8.87.04,13.49.04v5.21c-3.33,0-6.59.07-9.83-.03-1.57-.05-2.08.48-2,2.03.11,2.14.03,4.29.03,6.75Z"/>
  <path class="cls-1" d="M365.78,141.1c4.16-.58,4.01-.53,5.13,2.78,2.39,7.02,4.95,13.98,7.45,20.96.09.24.3.44.61.89.8-2.14,1.55-4.05,2.24-5.98,2.06-5.74,4.18-11.45,6.09-17.24.86-2.59,2.68-1.42,4.89-1.7-4.47,12.32-8.79,24.25-13.12,36.19-.17.03-.33.06-.5.09-4.24-11.93-8.49-23.86-12.81-36Z"/>
  <path class="cls-1" d="M3.72,48.53c6.38-4.85,13.65-5.75,19.48-2.16-1.1.22-2.1.41-3.58.7,2.25,1.28,4.17,2.36,6.05,3.42-2.71,6.1-9.84,7.65-15.09,3.5-2.31-1.83-4.62-3.67-6.86-5.46Z"/>
  <path class="cls-1" d="M453.27,52.98c.6-3.66.96-7.38,1.85-10.97,1.34-5.43,2.97-10.8,4.66-16.13.42-1.33,1.37-2.58,2.36-3.61,1.32-1.37,2.93-.87,3.52.95.23.7.27,1.51.22,2.25-.06.96-.19,1.94-.47,2.86-2.64,8.82-6.64,17-11.54,24.75-.2-.04-.4-.07-.6-.11Z"/>
  <path class="cls-1" d="M214.75,158.69v3.8h-28.46v-3.8h28.46Z"/>
  <path class="cls-1" d="M444.08,158.6h28.32v4.03c-1.03,0-1.99,0-2.94,0-7.36,0-14.71,0-22.07,0q-3.76,0-3.31-4.03Z"/>
  <path class="cls-1" d="M48.51,38.7c.08-.98.16-1.85.25-3.01-1.4,1.15-2.46,2.02-3.55,2.91-2.67-4.25-2.68-9.35,1.68-12.13,1.98-1.26,3.86-2.66,5.8-4.01,2.33,4.88.29,12.69-4.18,16.24Z"/>
  <path class="cls-1" d="M317.24,34.45c0,2.83-.96,4.98-2.96,6.63-2.87,2.36-6.32,1.23-7.26-2.35-.8-3.05.6-6.69,3.24-8.38,1.43-.91,2.96-1.25,4.52-.38,1.85,1.02,2.36,2.79,2.45,4.49Z"/>
  <path class="cls-1" d="M53.54,72.93c-5.34-.07-9.52-.69-11.98-5.24-1.01-1.86.28-4.91,2.38-5.09,2.48-.22,4.89.35,6.19,2.57,1.33,2.27,2.16,4.85,3.41,7.75Z"/>
</svg>